<svg id="Information" xmlns="http://www.w3.org/2000/svg" width="16" height="16"><defs><style>.cls-1{fill:#0089d9;fill-rule:evenodd}</style></defs><path class="cls-1" d="M7.5 0A7.5 7.5 0 1 0 15 7.5 7.5 7.5 0 0 0 7.5 0zm0 14A6.5 6.5 0 1 1 14 7.5 6.5 6.5 0 0 1 7.5 14z"/><path class="cls-1" d="M5.7 7.5a.67.67 0 0 0 0 .2 3.1 3.1 0 0 1 1.1-.4.2.2 0 0 1 .1.2L6 10.2a1 1 0 0 0 1 1h.1a1.81 1.81 0 0 0 1.7-1v-.5a3 3 0 0 1-1 .9c-.3 0-.3 0-.3-.3l.8-3a.71.71 0 0 0-.28-1H7.9a2.67 2.67 0 0 0-2.2 1.2zM7.7 5.7a1 1 0 0 0 .2-2 1 1 0 0 0-1.1.9v.1a.89.89 0 0 0 .79 1z"/></svg>