<svg data-name="Layer 1" xmlns="http://www.w3.org/2000/svg" width="16" height="16"><path d="M12 7V5a4 4 0 0 0-8 0v2a2 2 0 0 0-2 2v5a2 2 0 0 0 2 2h8a2 2 0 0 0 2-2V9a2 2 0 0 0-2-2zM5 5a2.9 2.9 0 0 1 2.8-3H8a2.9 2.9 0 0 1 3 2.8V7H5zm8 9a.9.9 0 0 1-.79 1H4a.9.9 0 0 1-1-.79.74.74 0 0 1 0-.21V9a.9.9 0 0 1 .79-1H12a.9.9 0 0 1 1 .79.74.74 0 0 1 0 .21zM8 9a.9.9 0 0 0-1 .79.74.74 0 0 0 0 .21v1a.9.9 0 0 0 .79 1H8a.9.9 0 0 0 1-.79.74.74 0 0 0 0-.21v-1a.9.9 0 0 0-.79-1z" fill="#0089d9" fill-rule="evenodd"/></svg>