<svg data-name="Layer 1" xmlns="http://www.w3.org/2000/svg" width="16" height="16"><path d="M5.74 13.57a3.58 3.58 0 0 0 .26-.29 10.64 10.64 0 0 0-3.29-3.22 2.54 2.54 0 0 0-.28.29A2.24 2.24 0 0 0 2 11.83 2.32 2.32 0 0 0 4.12 14a2.32 2.32 0 0 0 1.63-.45zM15.7.3a1.6 1.6 0 0 0-1.83-.15l-1.53 2.28a1.43 1.43 0 0 0-1.69 1.13.29.29 0 0 0 0 .09C9.3 2.53 8 3 7 4.1 5.09 6 3.59 7.31 2.28 7.31c-.78 0-1.46-.61-2 0a1.14 1.14 0 0 0-.13 1.2 8.7 8.7 0 0 0 1.12 2.08 3.66 3.66 0 0 1 .87-.65A7.83 7.83 0 0 1 .92 8a9.45 9.45 0 0 1 2.66 1.5 16.65 16.65 0 0 1 2.93 3.06v.06l.08.12.07.09A13.48 13.48 0 0 1 8 15a10 10 0 0 1-1.76-1.11 3.19 3.19 0 0 1-.61.93 8.2 8.2 0 0 0 2.08 1.07 1 1 0 0 0 1-.18c.3-.3.3-.82 0-1.53-.31-1.43 1.15-3.18 3.34-5.35 1-1 1.44-2.19.29-3.48a1.54 1.54 0 0 0 1.2-1.63l2.2-1.61A1.46 1.46 0 0 0 15.7.3zm-4.85 8.08a20.65 20.65 0 0 0-3.15 4 19.23 19.23 0 0 0-1.86-2.16 20.84 20.84 0 0 0-2.18-1.91 17.75 17.75 0 0 0 4-3.17 2.13 2.13 0 0 1 3-.25l.25.25A2.16 2.16 0 0 1 11 8.19a1.7 1.7 0 0 1-.15.19z" fill="#0089d9" data-name="Signalisation Bell"/></svg>