<svg data-name="Layer 1" xmlns="http://www.w3.org/2000/svg" width="24" height="24"><path d="M18 18a1.07 1.07 0 0 1-.6-.2 7.51 7.51 0 0 1-2.5 2.2H21c0 2.2-3 2-10 2s-10 .2-10-2h6.1A8.16 8.16 0 0 1 3 13V9h18c1.7 0 2 1.8 2 4s-3.3 5-5 5zm-1-7H5v2.7c0 2.9 2.7 5.3 6 5.3s6-2.4 6-5.3zm2.7 0c-.7 0-.7 0-.7 2a27.75 27.75 0 0 0 0 3 4.68 4.68 0 0 0 2-3c0-2 0-2-1.3-2zM15 8h-1a3.13 3.13 0 0 1-1-2c0-.6 1-1.4 1-2a3.13 3.13 0 0 0-1-2h1a3.13 3.13 0 0 1 1 2c0 .6-1 1.4-1 2a2.83 2.83 0 0 0 1 2zm-3 0h-1a3.13 3.13 0 0 1-1-2c0-.6 1-1.4 1-2a3.13 3.13 0 0 0-1-2h1a3.13 3.13 0 0 1 1 2c0 .6-1 1.4-1 2a2.83 2.83 0 0 0 1 2zM9 8H8a3.13 3.13 0 0 1-1-2c0-.6 1-1.4 1-2a3.13 3.13 0 0 0-1-2h1a3.13 3.13 0 0 1 1 2c0 .6-1 1.4-1 2a2.83 2.83 0 0 0 1 2z" fill="#0089d9" fill-rule="evenodd"/></svg>