<svg data-name="Date Picker" xmlns="http://www.w3.org/2000/svg" width="24" height="24"><path d="M6 15h2v-2H6zm3 3h2v-2H9zm-3 0h2v-2H6zm3-3h2v-2H9zm0-3h2v-2H9zm7-6c.55 0 1-.17 1-1V3c0-.83-.45-1-1-1s-1 .17-1 1v2c0 .83.45 1 1 1zM7 6c.55 0 1-.17 1-1V3c0-.83-.45-1-1-1s-1 .17-1 1v2c0 .83.45 1 1 1zm12.71-1.71A1 1 0 0 0 19 4h-1v1a1.84 1.84 0 0 1-1.66 2H16a1.84 1.84 0 0 1-2-1.66A1.93 1.93 0 0 1 14 5V4H9v1a1.84 1.84 0 0 1-1.66 2H7a1.84 1.84 0 0 1-2-1.66A1.93 1.93 0 0 1 5 5V4H4a1 1 0 0 0-1 1v15a1 1 0 0 0 1 1h15a1 1 0 0 0 1-1V5a1 1 0 0 0-.29-.71zM19 19a1 1 0 0 1-1 1H5a1 1 0 0 1-1-1V9a1 1 0 0 1 1-1h13a1 1 0 0 1 1 1zm-4-7h2v-2h-2zm-3 6h2v-2h-2zm3-3h2v-2h-2zm-3-3h2v-2h-2zm0 3h2v-2h-2zm3 3h2v-2h-2z" fill="#0089d9" fill-rule="evenodd"/></svg>