<svg id="Layer_1" data-name="Layer 1" xmlns="http://www.w3.org/2000/svg" width="53" height="24"><defs><style>.cls-2{fill:#0089d9}</style><clipPath id="clip-path"><path d="M13 8H2v14h9v-7c0-1 2-1 2-2z" fill="none"/></clipPath></defs><g id="Encrypted_PDF" data-name="Encrypted PDF"><g id="Filled"><path class="cls-2" d="M35 .25l-5.7 5.7H35V.25z"/><path class="cls-2" d="M35.8 13.35a.77.77 0 0 1 .2.6.68.68 0 0 1-.1.5.78.78 0 0 1-.4.4H34V13h1.4zM49 0v8h-3a4.3 4.3 0 0 0-4 4v1a.85.85 0 0 1-.2.5l-.4-.8a1.93 1.93 0 0 0-.7-.6H38v6h2v6H29V7h7V0zM37 13.75a2 2 0 0 0-.3-1.1 1.64 1.64 0 0 0-.8-.6H33v6h1V16h.7l1.1-.2.6-.4c.2-.1.3-.4.4-.6a3.12 3.12 0 0 0 .2-1.05z"/><path class="cls-2" d="M41 14c-.5.2-1 .5-1 1v2h-1v-4h1.2c.2 0 .3.1.4.3zM51 15v-2a4 4 0 0 0-8 0v2a2 2 0 0 0-2 2v5a2 2 0 0 0 2 2h8a2 2 0 0 0 2-2v-5a2 2 0 0 0-2-2zm-6-1.84a2 2 0 1 1 4 0V15h-4zm6 8.18a.7.7 0 0 1-.69.71H43.8a.78.78 0 0 1-.8-.7v-3.64a.78.78 0 0 1 .8-.7h6.4a.69.69 0 0 1 .79.59.37.37 0 0 1 0 .11z"/><path class="cls-2" d="M47 17a1.11 1.11 0 0 0-1 1v1a1 1 0 0 0 1 1 .9.9 0 0 0 1-.79.74.74 0 0 0 0-.21v-1a1 1 0 0 0-1-1z"/></g><path d="M22 15v-2a4 4 0 0 0-8 0v2a2.09 2.09 0 0 0-2 2v5a1.9 1.9 0 0 0 1.79 2H22a2 2 0 0 0 2-2v-5a2 2 0 0 0-2-2zm-6-2a2 2 0 1 1 4 0v2h-4zm6 8.32a.8.8 0 0 1-.8.7h-6.4a.8.8 0 0 1-.8-.7v-3.61a.78.78 0 0 1 .8-.7H18a.9.9 0 0 0-1 .78.81.81 0 0 0 0 .21v1a1 1 0 0 0 2 0v-1a.89.89 0 0 0-.79-1 .74.74 0 0 0-.21 0h3.2a.78.78 0 0 1 .8.7zM2 8h6V2h10v6h2V0H6L0 6.18V24h11v-2H2zm4-5.55V6H2.4z" fill-rule="evenodd" fill="#0089d9"/><g clip-path="url(#clip-path)" id="PDF_Text" data-name="PDF Text"><path class="cls-2" d="M4 18v-6h2.9a1.64 1.64 0 0 1 .8.6 2 2 0 0 1 .3 1.2 3.12 3.12 0 0 1-.2 1c-.1.2-.2.5-.4.6l-.6.4-1.1.2H5v2zm1-5v2h1.5a.78.78 0 0 0 .4-.4.71.71 0 0 0 .1-.6.77.77 0 0 0-.2-.6c-.1-.2-.3-.3-.4-.4zM9 12h2.7a1.9 1.9 0 0 1 .7.62 2.65 2.65 0 0 1 .4.93 6.28 6.28 0 0 1 .2 1.55 4.28 4.28 0 0 1-.1 1.24 3 3 0 0 1-.6 1.14 1.43 1.43 0 0 1-.6.52H9zm1 1v4.14h1.3l.4-.2c.1-.11.1-.31.2-.63a3.68 3.68 0 0 0 .1-1.21 3.58 3.58 0 0 0-.1-1.1c-.1-.21-.5-.83-.7-.83H10zM14 18v-6h4v1h-3v2h2v1h-2v2z"/></g></g></svg>