<svg id="Layer_1_copy" data-name="Layer 1 copy" xmlns="http://www.w3.org/2000/svg" width="24" height="24"><defs><style>.cls-1{fill:#0089d9;fill-rule:evenodd}</style></defs><path class="cls-1" d="M1 2h2v2H1zm0 4h2v2H1zm0 4h2v2H1zm0 4h2v2H1zM5 3a1 1 0 0 1 1-1h16a1 1 0 0 1 0 2H6a1 1 0 0 1-1-1zm14.1 3H22a1 1 0 0 1 0 2h-1.64v-.23A3.67 3.67 0 0 0 19.1 6zm-8.35 0H6a1 1 0 0 0 0 2h3.7l.08-.27A4.5 4.5 0 0 1 10.75 6zm9.84 4H22a1 1 0 0 1 0 2h-1.55a12.15 12.15 0 0 0 .14-2zM9.45 10H6a1 1 0 0 0 0 2h3.63a9.6 9.6 0 0 1-.18-2zm10.49 4H22a1 1 0 0 1 0 2h-2.68a12.85 12.85 0 0 1 .62-2zm-9.71 0H6a1 1 0 0 0 0 2h4.75a11.53 11.53 0 0 0-.52-2z" id="User_List_1" data-name="User List 1"/><g id="User"><g id="Gender-Free"><path class="cls-1" d="M16.79 15c0 5.13 5.21 2.28 5.21 6.55 0 1.93-14 1.93-14 0 0-4.27 5.21-1.42 5.21-6.55"/><path class="cls-1" d="M15 16.63c1.79 0 3.75-2.47 3.75-5.83C18.75 8.24 17.32 7 15 7s-3.75 1.24-3.75 3.8c0 3.36 1.96 5.83 3.75 5.83z"/></g></g></svg>